<?xml version="1.0" encoding="UTF-8" standalone="no"?>
<!-- Generator: Adobe Illustrator 16.0.4, SVG Export Plug-In . SVG Version: 6.00 Build 0)  -->

<svg
   xmlns:dc="http://purl.org/dc/elements/1.1/"
   xmlns:cc="http://creativecommons.org/ns#"
   xmlns:rdf="http://www.w3.org/1999/02/22-rdf-syntax-ns#"
   xmlns:svg="http://www.w3.org/2000/svg"
   xmlns="http://www.w3.org/2000/svg"
   xmlns:sodipodi="http://sodipodi.sourceforge.net/DTD/sodipodi-0.dtd"
   xmlns:inkscape="http://www.inkscape.org/namespaces/inkscape"
   version="1.1"
   id="Capa_1"
   x="0px"
   y="0px"
   width="16"
   height="16"
   viewBox="0 0 16 16"
   enable-background="new 0 0 216 146"
   xml:space="preserve"
   inkscape:version="0.48.5 r10040"
   sodipodi:docname="flasknew.svg"><metadata
     id="metadata9"><rdf:RDF><cc:Work
         rdf:about=""><dc:format>image/svg+xml</dc:format><dc:type
           rdf:resource="http://purl.org/dc/dcmitype/StillImage" /><dc:title></dc:title></cc:Work></rdf:RDF></metadata><defs
     id="defs7" /><sodipodi:namedview
     pagecolor="#ffffff"
     bordercolor="#666666"
     borderopacity="1"
     objecttolerance="10"
     gridtolerance="10"
     guidetolerance="10"
     inkscape:pageopacity="0"
     inkscape:pageshadow="2"
     inkscape:window-width="1366"
     inkscape:window-height="672"
     id="namedview5"
     showgrid="false"
     inkscape:zoom="22.444444"
     inkscape:cx="3.5864276"
     inkscape:cy="8.0005012"
     inkscape:window-x="0"
     inkscape:window-y="27"
     inkscape:window-maximized="1"
     inkscape:current-layer="Capa_1"
     fit-margin-top="0"
     fit-margin-left="0"
     fit-margin-right="0"
     fit-margin-bottom="0" /><path
     d="M 15.62015,13.749902 10.10493,5.489784 V 1.333387 h 0.7018 c 0.19002,0 0.3546,-0.0661 0.49335,-0.198046 0.13901,-0.131817 0.20845,-0.288182 0.20845,-0.468712 0,-0.180529 -0.0694,-0.336766 -0.20845,-0.468711 C 11.16133,0.065973 10.99675,0 10.80673,0 H 5.1931404 c -0.19016,0 -0.35461,0.06597 -0.49348,0.197918 -0.13888,0.131945 -0.20832,0.288182 -0.20832,0.468711 0,0.18053 0.0694,0.336895 0.20832,0.468712 0.13901,0.131945 0.30346,0.198046 0.49348,0.198046 h 0.70166 v 4.156269 l -5.51495003,8.260118 c -0.409238,0.618301 -0.487829,1.147871 -0.23564,1.588711 C 0.39640037,15.779452 0.90993037,16 1.6846704,16 H 14.3156 c 0.7746,0 1.288,-0.220548 1.54019,-0.661515 0.25219,-0.44084 0.1736,-0.970282 -0.23564,-1.588583 z M 4.0967704,10.666581 7.0790504,6.197838 7.2982704,5.874879 V 5.489528 1.333259 h 1.40333 v 4.156269 0.385351 l 0.21922,0.322959 2.9822796,4.468743 H 4.0967704 z"
     id="path3"
     style="fill:#999999;fill-opacity:1"
     inkscape:connector-curvature="0" /></svg>
